<svg width="62" height="37" viewBox="0 0 62 37" fill="none" xmlns="http://www.w3.org/2000/svg">
<path d="M24.72 0.419998V31H19.704V17.624H5.316V31H0.3V0.419998H5.316V13.532H19.704V0.419998H24.72ZM54.9954 36.544L49.6274 30.736C48.3074 31.1173 46.8554 31.308 45.2714 31.308C42.4261 31.308 39.8008 30.648 37.3954 29.328C35.0194 27.9787 33.1274 26.116 31.7194 23.74C30.3408 21.3347 29.6514 18.636 29.6514 15.644C29.6514 12.652 30.3408 9.968 31.7194 7.592C33.1274 5.216 35.0194 3.368 37.3954 2.048C39.8008 0.698664 42.4261 0.0239975 45.2714 0.0239975C48.1461 0.0239975 50.7714 0.698664 53.1474 2.048C55.5528 3.368 57.4448 5.216 58.8234 7.592C60.2021 9.968 60.8914 12.652 60.8914 15.644C60.8914 18.46 60.2754 21.012 59.0434 23.3C57.8408 25.5587 56.1688 27.3773 54.0274 28.756L61.3754 36.544H54.9954ZM34.7994 15.644C34.7994 17.9027 35.2394 19.8973 36.1194 21.628C37.0288 23.3293 38.2754 24.6493 39.8594 25.588C41.4434 26.4973 43.2474 26.952 45.2714 26.952C47.2954 26.952 49.0994 26.4973 50.6834 25.588C52.2674 24.6493 53.4994 23.3293 54.3794 21.628C55.2888 19.8973 55.7434 17.9027 55.7434 15.644C55.7434 13.3853 55.2888 11.4053 54.3794 9.704C53.4994 8.00266 52.2674 6.69733 50.6834 5.788C49.0994 4.87867 47.2954 4.424 45.2714 4.424C43.2474 4.424 41.4434 4.87867 39.8594 5.788C38.2754 6.69733 37.0288 8.00266 36.1194 9.704C35.2394 11.4053 34.7994 13.3853 34.7994 15.644Z" fill="url(#paint0_linear_308_635)"/>
<defs>
<linearGradient id="paint0_linear_308_635" x1="30" y1="-17" x2="30" y2="49" gradientUnits="userSpaceOnUse">
<stop stop-color="#EDBE8C"/>
<stop offset="1" stop-color="#BD9167"/>
</linearGradient>
</defs>
</svg>
